# xmcd CD database file
# Copyright (C) 1993-1996 Ti Kan
#
# Track frame offsets:
# 150
# 15137
# 30377
# 46457
# 63977
# 86695
# 107037
# 122640
# 149917
# 165740
# 186192
# 199812
#
# Disc length: 2964 seconds
#
# Revision: 0
# Processed by: cddbd v1.4b41PL1 Copyright (c) Steve Scherf et al.
# Submitted via: inCDius 1.1b5
#
DISCID=a10b920c
DTITLE=Charlie Daniels Band - 36 All Time Greatest Hits Disc 2
DYEAR=1900
DGENRE=
TTITLE0=In America
TTITLE1=Simple Man 
TTITLE2=American Farmer
TTITLE3=Still In Saigon
TTITLE4=Trapped In The City
TTITLE5=M. I. A.
TTITLE6=American Rock And Roll
TTITLE7=It's My Life
TTITLE8=Saturday Night U. S. A.
TTITLE9=Powder Keg
TTITLE10=Saturday Night Down South
TTITLE11=Let Freedom Ring
EXTD=
EXTT0=
EXTT1=
EXTT2=
EXTT3=
EXTT4=
EXTT5=
EXTT6=
EXTT7=
EXTT8=
EXTT9=
EXTT10=
EXTT11=
PLAYORDER=
